# xmcd
# 
# Track frame offsets:
#     182
#     16632
#     31582
#     47947
#     64065
#     77960
#     99547
#     115425
#     133315
#     156897
#     177977
#     192537
#     210410
#     234130
#     256305
# 
# Disc length: 4131
# 
# Revision: 3
# Processed by: cddbd v1.5.2PL0 Copyright (c) Steve Scherf et al.
# Submitted via: fre:ac v1.0.31
# 
DISCID=c710210f
DTITLE=Wet Willie - The Best Of
DYEAR=1994
DGENRE=Rock/Pop
TTITLE0=Have A Good Time
TTITLE1=Shame Shame Shame
TTITLE2=Shout Bamalama
TTITLE3=Airport
TTITLE4=Grits Ain't Groceries
TTITLE5=Red Hot Chicken
TTITLE6=Country Side Of Life
TTITLE7=Keep On Smilin'
TTITLE8=Dixie Rock
TTITLE9=Leona
TTITLE10=No No No
TTITLE11=Baby Fat
TTITLE12=Everything That 'Cha Do (Will Come Back To You)
TTITLE13=Walkin' By Myself
TTITLE14=Lucy Was In Trouble (live)
EXTD=
EXTT0=
EXTT1=
EXTT2=
EXTT3=
EXTT4=
EXTT5=
EXTT6=
EXTT7=
EXTT8=
EXTT9=
EXTT10=
EXTT11=
EXTT12=
EXTT13=
EXTT14=
PLAYORDER=
